<?xml version="1.0" encoding="UTF-8"?><svg id="Layer_2" xmlns="http://www.w3.org/2000/svg" viewBox="0 0 171.85 103.33"><defs><style>.cls-1{letter-spacing:.05em;}.cls-2{fill:#02133d;}.cls-3{letter-spacing:.03em;}.cls-4{letter-spacing:.05em;}.cls-5{font-family:Voltaire, Voltaire;font-size:28px;}.cls-5,.cls-6{fill:#eaeaea;}.cls-6{font-family:Montserrat-Regular, Montserrat;font-size:15.32px;}</style></defs><g id="Layer_1-2"><g id="Boat_Name"><g id="Boat_Name_GREY"><text class="cls-5" transform="translate(0 62.11)"><tspan x="0" y="0">S/V LIBERTY TREE</tspan></text><text class="cls-6" transform="translate(45.15 81.2)"><tspan class="cls-1" x="0" y="0">H</tspan><tspan class="cls-3" x="13.22" y="0">Y</tspan><tspan class="cls-4" x="23.48" y="0">L</tspan><tspan class="cls-1" x="33.3" y="0">AS 46</tspan></text></g><g id="Boat_Name_BLUE"><path id="anchor" class="cls-2" d="M99.23,22.08h1.86l-2.83-4.91-2.83,4.91h1.78c-.01,.07-.03,.14-.05,.22-.04,.12-.1,.26-.15,.41-.04,.15-.14,.31-.23,.48-.05,.08-.09,.17-.14,.26-.06,.09-.13,.18-.19,.27-.07,.09-.12,.19-.21,.28-.08,.09-.17,.18-.25,.28-.15,.2-.39,.37-.58,.57-.45,.37-.97,.74-1.58,1.06-.59,.34-1.29,.59-2.01,.85-.74,.21-1.51,.42-2.32,.53-.18,.03-.35,.05-.52,.07l-.64-15.06c.38,0,.75-.02,1.11-.03,.77-.02,1.49-.06,2.1-.1,.17-.01,.33-.02,.48-.03,.32,.54,.9,.91,1.57,.91,1.01,0,1.83-.82,1.83-1.83s-.82-1.83-1.83-1.83c-.67,0-1.26,.37-1.57,.91-.15-.01-.31-.02-.48-.03-.62-.04-1.33-.08-2.1-.1-.38,0-.78-.03-1.19-.03,0,0,0,0-.01,0l-.1-2.37c1.65-.48,2.85-2,2.85-3.8,0-2.19-1.78-3.96-3.96-3.96s-3.96,1.78-3.96,3.96c0,1.8,1.21,3.32,2.85,3.8l-.1,2.37s0,0-.01,0c-.4,0-.8,.02-1.19,.03-.77,.02-1.49,.06-2.1,.1-.17,.01-.32,.02-.48,.03-.32-.54-.9-.91-1.58-.91-1.01,0-1.83,.82-1.83,1.83s.82,1.83,1.83,1.83c.67,0,1.26-.37,1.57-.91,.15,.01,.31,.02,.48,.03,.62,.04,1.33,.08,2.1,.1,.36,0,.73,.02,1.11,.03l-.64,15.06c-.18-.02-.35-.04-.52-.07-.81-.11-1.58-.32-2.32-.53-.71-.26-1.42-.51-2.01-.85-.61-.32-1.13-.69-1.58-1.06-.2-.2-.43-.37-.58-.57-.09-.1-.17-.19-.25-.28-.09-.09-.14-.19-.21-.28-.07-.09-.13-.18-.19-.27-.05-.09-.1-.18-.14-.26-.05-.09-.09-.17-.14-.25-.05-.08-.06-.14-.09-.21-.05-.13-.11-.24-.15-.36-.02-.11-.04-.2-.06-.29h1.78l-2.83-4.91-2.83,4.91h1.86s0,.03,0,.04c0,.11-.01,.24-.02,.4,0,.18,.04,.43,.08,.7,.02,.13,.03,.29,.07,.41,.04,.13,.08,.27,.12,.41,.04,.14,.08,.3,.14,.45,.07,.15,.13,.3,.2,.45,.27,.63,.7,1.27,1.24,1.9,.27,.3,.57,.61,.9,.9,.33,.27,.68,.57,1.06,.81,.75,.53,1.6,.95,2.51,1.34,.91,.34,1.88,.65,2.88,.81,.5,.1,1.01,.16,1.51,.21,.25,.03,.51,.04,.77,.05l.83,.03,.7-.03c.23-.01,.45-.01,.73-.05,.53-.05,1.07-.11,1.56-.21,1-.16,1.96-.48,2.88-.81,.9-.38,1.76-.8,2.51-1.34,.38-.24,.73-.54,1.06-.81,.32-.29,.62-.6,.9-.9,.53-.63,.96-1.26,1.24-1.9,.07-.16,.14-.31,.2-.45,.06-.15,.1-.3,.14-.45,.09-.29,.16-.55,.18-.8,.03-.25,.07-.46,.08-.65,0-.19,0-.35-.01-.49,0-.01,0-.02,0-.03Zm-13.99-16.98c0-.98,.8-1.78,1.78-1.78s1.78,.8,1.78,1.78-.8,1.78-1.78,1.78-1.78-.8-1.78-1.78Z"/><g id="dots"><path class="cls-2" d="M27.38,76.32c0,1.08-.88,1.96-1.96,1.96s-1.96-.88-1.96-1.96c0-1.08,.88-1.96,1.96-1.96s1.96,.88,1.96,1.96Z"/><path class="cls-2" d="M149.15,76.32c0,1.08-.88,1.96-1.96,1.96s-1.96-.88-1.96-1.96c0-1.08,.88-1.96,1.96-1.96s1.96,.88,1.96,1.96Z"/></g><g id="waves"><path class="cls-2" d="M154.3,91.09c-.11,0-.21-.02-.32-.02-2.12,0-3.22,.9-4.19,1.7-.92,.75-1.71,1.4-3.36,1.4s-2.45-.65-3.36-1.4c-.97-.8-2.07-1.7-4.19-1.7s-3.21,.9-4.18,1.7c-.92,.75-1.71,1.4-3.36,1.4s-2.44-.65-3.36-1.4c-.97-.8-2.07-1.7-4.19-1.7s-3.22,.9-4.18,1.7c-.92,.75-1.71,1.4-3.36,1.4s-2.44-.65-3.36-1.4c-.97-.8-2.07-1.7-4.18-1.7s-3.22,.9-4.18,1.7c-.92,.75-1.71,1.4-3.36,1.4s-2.44-.65-3.36-1.4c-.97-.8-2.06-1.7-4.18-1.7s-3.22,.9-4.19,1.7c-.92,.75-1.71,1.4-3.36,1.4s-2.44-.65-3.36-1.4c-.97-.8-2.07-1.7-4.18-1.7s-3.22,.9-4.18,1.7c-.92,.75-1.71,1.4-3.36,1.4s-2.44-.65-3.36-1.4c-.97-.8-2.07-1.7-4.18-1.7s-3.22,.9-4.18,1.7c-.92,.75-1.71,1.4-3.36,1.4s-2.44-.65-3.36-1.4c-.97-.8-2.07-1.7-4.18-1.7s-3.21,.9-4.18,1.7c-.92,.75-1.71,1.4-3.36,1.4s-2.44-.65-3.36-1.4c-.97-.8-2.07-1.7-4.18-1.7s-3.21,.9-4.18,1.7c-.92,.75-1.71,1.4-3.36,1.4s-2.44-.65-3.36-1.4c-.97-.8-2.06-1.7-4.18-1.7-.36,0-.65,.29-.65,.65s.29,.65,.65,.65c1.65,0,2.44,.65,3.36,1.4,.97,.8,2.06,1.7,4.18,1.7s3.21-.9,4.18-1.7c.92-.75,1.71-1.4,3.36-1.4s2.44,.65,3.36,1.4c.97,.8,2.07,1.7,4.18,1.7s3.21-.9,4.18-1.7c.92-.75,1.71-1.4,3.36-1.4s2.44,.65,3.36,1.4c.97,.8,2.07,1.7,4.18,1.7s3.22-.9,4.18-1.7c.92-.75,1.71-1.4,3.36-1.4s2.44,.65,3.36,1.4c.97,.8,2.07,1.7,4.18,1.7s3.21-.9,4.18-1.7c.92-.75,1.71-1.4,3.36-1.4s2.44,.65,3.36,1.4c.97,.8,2.07,1.7,4.18,1.7s3.22-.9,4.18-1.7c.92-.75,1.71-1.4,3.36-1.4s2.44,.65,3.36,1.4c.97,.8,2.06,1.7,4.18,1.7s3.21-.9,4.18-1.7c.92-.75,1.71-1.4,3.36-1.4s2.44,.65,3.36,1.4c.97,.8,2.07,1.7,4.18,1.7s3.22-.9,4.18-1.7c.92-.75,1.71-1.4,3.36-1.4s2.44,.65,3.36,1.4c.97,.8,2.07,1.7,4.19,1.7s3.21-.9,4.18-1.7c.92-.75,1.71-1.4,3.36-1.4s2.45,.65,3.36,1.4c.97,.8,2.07,1.7,4.19,1.7s3.22-.9,4.19-1.7c.92-.75,1.71-1.4,3.36-1.4,.11,0,.21,.01,.32,.02v-1.3Z"/><path class="cls-2" d="M138.5,98.95c-1.87,.1-2.9,.93-3.8,1.68-.92,.75-1.71,1.4-3.36,1.4s-2.44-.65-3.36-1.4c-.97-.8-2.07-1.7-4.19-1.7s-3.22,.9-4.18,1.7c-.92,.75-1.71,1.4-3.36,1.4s-2.44-.65-3.36-1.4c-.97-.8-2.07-1.7-4.18-1.7s-3.22,.9-4.18,1.7c-.92,.75-1.71,1.4-3.36,1.4s-2.44-.65-3.36-1.4c-.97-.8-2.06-1.7-4.18-1.7s-3.22,.9-4.19,1.7c-.92,.75-1.71,1.4-3.36,1.4s-2.44-.65-3.36-1.4c-.97-.8-2.07-1.7-4.18-1.7s-3.22,.9-4.18,1.7c-.92,.75-1.71,1.4-3.36,1.4s-2.44-.65-3.36-1.4c-.97-.8-2.07-1.7-4.18-1.7s-3.22,.9-4.18,1.7c-.92,.75-1.71,1.4-3.36,1.4s-2.44-.65-3.36-1.4c-.97-.8-2.07-1.7-4.18-1.7s-3.21,.9-4.18,1.7c-.92,.75-1.71,1.4-3.36,1.4s-2.44-.65-3.36-1.4c-.97-.8-2.07-1.7-4.18-1.7-.02,0-.03,0-.05,0v1.3s.03,0,.05,0c1.65,0,2.44,.65,3.36,1.4,.97,.8,2.07,1.7,4.18,1.7s3.21-.9,4.18-1.7c.92-.75,1.71-1.4,3.36-1.4s2.44,.65,3.36,1.4c.97,.8,2.07,1.7,4.18,1.7s3.22-.9,4.18-1.7c.92-.75,1.71-1.4,3.36-1.4s2.44,.65,3.36,1.4c.97,.8,2.07,1.7,4.18,1.7s3.21-.9,4.18-1.7c.92-.75,1.71-1.4,3.36-1.4s2.44,.65,3.36,1.4c.97,.8,2.07,1.7,4.18,1.7s3.22-.9,4.18-1.7c.92-.75,1.71-1.4,3.36-1.4s2.44,.65,3.36,1.4c.97,.8,2.06,1.7,4.18,1.7s3.21-.9,4.18-1.7c.92-.75,1.71-1.4,3.36-1.4s2.44,.65,3.36,1.4c.97,.8,2.07,1.7,4.18,1.7s3.22-.9,4.18-1.7c.92-.75,1.71-1.4,3.36-1.4s2.44,.65,3.36,1.4c.97,.8,2.07,1.7,4.19,1.7s3.21-.9,4.18-1.7c.84-.69,1.58-1.29,2.98-1.38v-1.3Z"/></g></g></g></g></svg>