<?xml version="1.0" encoding="UTF-8"?><svg id="Layer_2" xmlns="http://www.w3.org/2000/svg" viewBox="0 0 377.05 139.91"><defs><style>.cls-1{fill:#02133d;}.cls-2{fill:#4b4b4c;}</style></defs><g id="Layer_1-2"><g><g><path class="cls-1" d="M29.2,95.48c.86,.51,1.75,.96,2.69,1.36s1.96,.6,3.08,.6c.68,0,1.34-.1,1.96-.29,.63-.19,1.18-.49,1.65-.89,.47-.4,.85-.91,1.13-1.53s.42-1.36,.42-2.21c0-.58-.07-1.17-.22-1.78-.15-.61-.39-1.27-.73-1.98-.34-.71-.79-1.48-1.34-2.32-.55-.84-1.24-1.77-2.06-2.8l-3.38-4.27c-.84-1.07-1.55-2.08-2.13-3.04-.59-.96-1.06-1.88-1.43-2.76-.37-.88-.63-1.73-.8-2.54-.17-.81-.25-1.61-.25-2.4,0-1.31,.21-2.52,.63-3.63,.42-1.11,1.03-2.07,1.83-2.88,.8-.81,1.78-1.44,2.92-1.9,1.14-.45,2.44-.68,3.89-.68,1.15,0,2.31,.15,3.48,.46,1.17,.31,2.31,.79,3.43,1.45l-2.1,4.06c-.61-.37-1.27-.69-1.98-.96-.71-.27-1.49-.41-2.34-.41-1.43,0-2.58,.41-3.43,1.22-.86,.81-1.28,1.96-1.28,3.45,0,.4,.04,.82,.13,1.24s.24,.9,.46,1.4c.22,.51,.52,1.07,.89,1.68,.38,.61,.85,1.3,1.43,2.07l4.9,6.44c.63,.84,1.22,1.66,1.78,2.45,.56,.8,1.04,1.61,1.44,2.44s.72,1.7,.96,2.62c.24,.92,.35,1.91,.35,2.97,0,1.57-.25,2.98-.76,4.23-.51,1.25-1.21,2.31-2.12,3.18-.91,.87-1.99,1.54-3.24,2-1.25,.46-2.62,.69-4.1,.69s-3-.23-4.4-.68c-1.4-.45-2.6-1.03-3.62-1.73l2.25-4.35Z"/><path class="cls-1" d="M63.92,59.51l4.01,1.39-14.2,41.34-3.98-1.39,14.17-41.34Z"/><path class="cls-1" d="M70.73,60h5.24l5.76,22.32,1.1,5,1.15-5,5.76-22.32h5.24l-12.13,43.02-12.13-43.02Z"/><path class="cls-1" d="M109.4,60h4.87v37.18h10.77v4.56h-15.64V60Z"/><path class="cls-1" d="M130.28,60h4.87v41.74h-4.87V60Z"/><path class="cls-1" d="M144.06,59.51c2.58,0,4.86,.34,6.82,1.03s3.61,1.62,4.93,2.8c1.32,1.18,2.31,2.55,2.97,4.1,.66,1.55,.99,3.19,.99,4.9,0,.73-.1,1.49-.29,2.28-.19,.79-.47,1.56-.84,2.32-.37,.76-.82,1.5-1.36,2.21-.54,.72-1.15,1.39-1.83,2.02,1.78,1.05,3.15,2.34,4.1,3.89,.95,1.55,1.43,3.34,1.43,5.38,0,1.69-.36,3.26-1.07,4.7-.72,1.44-1.78,2.69-3.2,3.73-1.42,1.05-3.18,1.86-5.29,2.45-2.11,.58-4.57,.88-7.36,.88V59.51Zm4.87,20.28c.65,0,1.31-.19,1.99-.56s1.31-.89,1.87-1.55c.57-.65,1.03-1.44,1.39-2.35,.36-.91,.54-1.89,.54-2.96s-.18-2.1-.54-3.01c-.36-.91-.82-1.69-1.39-2.35-.57-.65-1.19-1.16-1.87-1.52s-1.35-.54-1.99-.54v14.83Zm0,16.98c.99,0,1.92-.15,2.78-.46,.86-.3,1.59-.73,2.21-1.28s1.11-1.21,1.47-1.99c.36-.78,.54-1.64,.54-2.58,0-.75-.18-1.5-.54-2.25s-.85-1.43-1.47-2.03-1.36-1.09-2.21-1.47c-.86-.37-1.78-.56-2.78-.56v12.63Z"/><path class="cls-1" d="M168.32,60h14.04v4.61h-9.17v16.03h7.86v4.61h-7.86v11.87h9.17v4.61h-14.04V60Z"/><path class="cls-1" d="M189.93,59.48c2.99-.12,5.59,.14,7.81,.79,2.22,.65,4.05,1.61,5.5,2.9,1.45,1.28,2.53,2.84,3.25,4.68s1.07,3.87,1.07,6.1c0,2.6-.47,4.92-1.41,6.94-.94,2.03-2.39,3.68-4.35,4.95l7.26,15.9h-5.5l-5.97-14.07c-.87,.25-1.8,.43-2.78,.55v13.52h-4.87V59.48Zm4.87,23.79c1.12-.11,2.15-.37,3.09-.79,.94-.42,1.76-1.02,2.44-1.79,.68-.78,1.21-1.72,1.6-2.84,.38-1.12,.58-2.42,.58-3.9s-.19-2.79-.58-3.9-.92-2.07-1.6-2.84c-.68-.78-1.49-1.38-2.44-1.79-.94-.42-1.97-.68-3.09-.79v18.65Z"/><path class="cls-1" d="M218.49,64.62h-6.55v-4.61h17.97v4.61h-6.55v37.12h-4.87v-37.12Z"/><path class="cls-1" d="M241.18,87.51l-8.65-27.54h5.24l5.87,20.59,5.87-20.59h5.24l-8.7,27.72v14.04h-4.87v-14.23Z"/><path class="cls-1" d="M273.09,64.62h-6.55v-4.61h17.97v4.61h-6.55v37.12h-4.87v-37.12Z"/><path class="cls-1" d="M290.77,59.48c2.99-.12,5.59,.14,7.81,.79,2.22,.65,4.05,1.61,5.5,2.9,1.45,1.28,2.53,2.84,3.25,4.68,.72,1.83,1.07,3.87,1.07,6.1,0,2.6-.47,4.92-1.41,6.94-.94,2.03-2.39,3.68-4.35,4.95l7.26,15.9h-5.5l-5.97-14.07c-.87,.25-1.8,.43-2.78,.55v13.52h-4.87V59.48Zm4.87,23.79c1.12-.11,2.15-.37,3.09-.79,.94-.42,1.76-1.02,2.44-1.79,.68-.78,1.21-1.72,1.6-2.84,.38-1.12,.58-2.42,.58-3.9s-.19-2.79-.58-3.9-.92-2.07-1.6-2.84c-.68-.78-1.49-1.38-2.44-1.79-.94-.42-1.97-.68-3.09-.79v18.65Z"/><path class="cls-1" d="M315.4,60h14.04v4.61h-9.17v16.03h7.86v4.61h-7.86v11.87h9.17v4.61h-14.04V60Z"/><path class="cls-1" d="M337.01,60h14.04v4.61h-9.17v16.03h7.86v4.61h-7.86v11.87h9.17v4.61h-14.04V60Z"/></g><g id="Boat_Name_BLUE"><path id="anchor" class="cls-2" d="M205.68,31.01h2.61l-3.98-6.89-3.98,6.89h2.5c-.02,.09-.04,.19-.07,.31-.06,.17-.14,.36-.22,.57-.06,.22-.19,.44-.33,.68-.06,.12-.13,.24-.2,.37-.09,.12-.18,.25-.27,.38-.1,.13-.17,.27-.29,.4-.12,.13-.23,.26-.36,.39-.22,.28-.54,.52-.82,.8-.63,.51-1.36,1.03-2.21,1.48-.83,.48-1.82,.83-2.82,1.19-1.04,.3-2.12,.59-3.26,.74-.25,.05-.49,.08-.73,.1l-.91-21.15c.53,0,1.05-.03,1.55-.04,1.08-.03,2.09-.08,2.95-.14,.23-.01,.46-.03,.67-.05,.45,.76,1.27,1.27,2.21,1.27,1.42,0,2.57-1.15,2.57-2.57s-1.15-2.57-2.57-2.57c-.95,0-1.76,.52-2.21,1.28-.21-.02-.43-.03-.67-.05-.86-.06-1.87-.11-2.95-.14-.54-.01-1.1-.04-1.66-.04,0,0-.01,0-.02,0l-.14-3.33c2.31-.68,4.01-2.81,4.01-5.34,0-3.07-2.5-5.56-5.56-5.56s-5.56,2.5-5.56,5.56c0,2.53,1.69,4.66,4.01,5.34l-.14,3.33s-.01,0-.02,0c-.57,0-1.12,.03-1.66,.04-1.08,.03-2.09,.08-2.95,.14-.23,.01-.46,.03-.67,.05-.45-.76-1.27-1.28-2.21-1.28-1.42,0-2.57,1.15-2.57,2.57s1.15,2.57,2.57,2.57c.95,0,1.76-.52,2.21-1.27,.21,.02,.43,.03,.67,.05,.86,.06,1.87,.11,2.95,.14,.5,.01,1.02,.03,1.55,.04l-.91,21.15c-.25-.03-.49-.06-.73-.1-1.14-.15-2.22-.44-3.26-.74-1-.36-1.99-.71-2.82-1.19-.86-.45-1.58-.97-2.21-1.48-.28-.28-.6-.52-.82-.8-.12-.13-.24-.27-.36-.39-.12-.13-.19-.27-.29-.4-.09-.13-.18-.26-.27-.38-.07-.13-.14-.25-.2-.37-.07-.12-.13-.24-.19-.35-.07-.11-.08-.2-.12-.29-.07-.19-.15-.33-.22-.51-.03-.15-.06-.29-.08-.41h2.5l-3.98-6.89-3.98,6.89h2.61s0,.04,0,.06c0,.15-.02,.34-.03,.57,0,.26,.06,.61,.11,.98,.03,.18,.05,.4,.1,.58,.05,.18,.11,.38,.16,.58,.06,.2,.12,.41,.19,.63,.09,.2,.19,.42,.28,.63,.38,.89,.99,1.78,1.74,2.66,.38,.42,.8,.85,1.26,1.26,.47,.39,.95,.8,1.49,1.14,1.05,.75,2.25,1.34,3.52,1.88,1.28,.47,2.63,.91,4.04,1.14,.7,.15,1.41,.22,2.13,.3,.36,.05,.72,.05,1.08,.07l1.16,.04,.98-.04c.33-.01,.63-.02,1.03-.06,.75-.07,1.51-.15,2.19-.3,1.41-.23,2.76-.67,4.04-1.14,1.27-.54,2.47-1.13,3.52-1.88,.54-.34,1.03-.75,1.49-1.14,.45-.41,.87-.84,1.26-1.26,.75-.88,1.35-1.77,1.74-2.66,.1-.22,.19-.43,.29-.63,.08-.21,.13-.43,.19-.63,.12-.4,.22-.77,.25-1.12,.05-.35,.1-.65,.11-.92,0-.27-.01-.5-.02-.68,0-.02,0-.03,0-.05Zm-19.65-23.84c0-1.37,1.12-2.49,2.49-2.49s2.49,1.12,2.49,2.49-1.12,2.49-2.49,2.49-2.49-1.12-2.49-2.49Z"/><g id="waves"><path class="cls-2" d="M309.35,118.29c-.19,0-.36-.03-.56-.03-3.75,0-5.69,1.59-7.4,3-1.62,1.33-3.02,2.48-5.94,2.48s-4.32-1.15-5.94-2.48c-1.71-1.41-3.65-3-7.4-3s-5.68,1.59-7.39,3c-1.62,1.33-3.01,2.48-5.93,2.48s-4.32-1.15-5.94-2.48c-1.71-1.41-3.65-3-7.4-3s-5.68,1.59-7.39,3c-1.62,1.33-3.02,2.48-5.94,2.48s-4.32-1.15-5.93-2.48c-1.71-1.41-3.65-3-7.39-3s-5.68,1.59-7.39,3c-1.62,1.33-3.02,2.48-5.93,2.48s-4.32-1.15-5.93-2.48c-1.71-1.41-3.65-3-7.39-3s-5.69,1.59-7.4,3c-1.62,1.33-3.02,2.48-5.94,2.48s-4.32-1.15-5.94-2.48c-1.71-1.41-3.65-3-7.39-3s-5.68,1.59-7.39,3c-1.62,1.33-3.02,2.48-5.93,2.48s-4.32-1.15-5.94-2.48c-1.71-1.41-3.65-3-7.39-3s-5.68,1.59-7.39,3c-1.62,1.33-3.02,2.48-5.94,2.48s-4.32-1.15-5.93-2.48c-1.71-1.41-3.65-3-7.39-3s-5.68,1.59-7.39,3c-1.62,1.33-3.01,2.48-5.93,2.48s-4.32-1.15-5.93-2.48c-1.71-1.41-3.65-3-7.39-3s-5.68,1.59-7.39,3c-1.62,1.33-3.01,2.48-5.93,2.48s-4.31-1.15-5.93-2.48c-1.71-1.41-3.65-3-7.39-3-.63,0-1.15,.51-1.15,1.15s.51,1.15,1.15,1.15c2.92,0,4.32,1.15,5.93,2.48,1.71,1.41,3.65,3,7.39,3s5.68-1.59,7.39-3c1.62-1.33,3.01-2.48,5.93-2.48s4.32,1.15,5.94,2.48c1.71,1.41,3.65,3,7.39,3s5.68-1.59,7.39-3c1.62-1.33,3.01-2.48,5.93-2.48s4.32,1.15,5.94,2.48c1.71,1.41,3.65,3,7.39,3s5.68-1.59,7.39-3c1.62-1.33,3.02-2.48,5.94-2.48s4.32,1.15,5.94,2.48c1.71,1.41,3.65,3,7.39,3s5.68-1.59,7.39-3c1.62-1.33,3.02-2.48,5.94-2.48s4.32,1.15,5.94,2.48c1.71,1.41,3.65,3,7.39,3s5.68-1.59,7.39-3c1.62-1.33,3.02-2.48,5.94-2.48s4.31,1.15,5.93,2.48c1.71,1.41,3.65,3,7.39,3s5.68-1.59,7.39-3c1.62-1.33,3.02-2.48,5.94-2.48s4.32,1.15,5.94,2.48c1.71,1.41,3.65,3,7.39,3s5.68-1.59,7.39-3c1.62-1.33,3.02-2.48,5.94-2.48s4.32,1.15,5.94,2.48c1.71,1.41,3.65,3,7.4,3s5.68-1.59,7.39-3c1.62-1.33,3.01-2.48,5.93-2.48s4.32,1.15,5.94,2.48c1.71,1.41,3.65,3,7.4,3s5.69-1.59,7.4-3c1.62-1.33,3.02-2.48,5.95-2.48,.2,0,.38,.02,.56,.03v-2.29Z"/><path class="cls-2" d="M281.43,132.17c-3.3,.18-5.12,1.65-6.72,2.97-1.62,1.33-3.01,2.48-5.93,2.48s-4.32-1.15-5.94-2.48c-1.71-1.41-3.65-3-7.4-3s-5.68,1.59-7.39,3c-1.62,1.33-3.02,2.48-5.94,2.48s-4.32-1.15-5.93-2.48c-1.71-1.41-3.65-3-7.39-3s-5.68,1.59-7.39,3c-1.62,1.33-3.02,2.48-5.93,2.48s-4.32-1.15-5.93-2.48c-1.71-1.41-3.65-3-7.39-3s-5.69,1.59-7.4,3c-1.62,1.33-3.02,2.48-5.94,2.48s-4.32-1.15-5.94-2.48c-1.71-1.41-3.65-3-7.39-3s-5.68,1.59-7.39,3c-1.62,1.33-3.02,2.48-5.93,2.48s-4.32-1.15-5.94-2.48c-1.71-1.41-3.65-3-7.39-3s-5.68,1.59-7.39,3c-1.62,1.33-3.02,2.48-5.94,2.48s-4.32-1.15-5.93-2.48c-1.71-1.41-3.65-3-7.39-3s-5.68,1.59-7.39,3c-1.62,1.33-3.01,2.48-5.93,2.48s-4.32-1.15-5.93-2.48c-1.71-1.41-3.65-3-7.39-3-.03,0-.06,0-.09,0v2.3s.06,0,.09,0c2.92,0,4.32,1.15,5.94,2.48,1.71,1.41,3.65,3,7.39,3s5.68-1.59,7.39-3c1.62-1.33,3.01-2.48,5.93-2.48s4.32,1.15,5.94,2.48c1.71,1.41,3.65,3,7.39,3s5.68-1.59,7.39-3c1.62-1.33,3.02-2.48,5.94-2.48s4.32,1.15,5.94,2.48c1.71,1.41,3.65,3,7.39,3s5.68-1.59,7.39-3c1.62-1.33,3.02-2.48,5.94-2.48s4.32,1.15,5.94,2.48c1.71,1.41,3.65,3,7.39,3s5.68-1.59,7.39-3c1.62-1.33,3.02-2.48,5.94-2.48s4.31,1.15,5.93,2.48c1.71,1.41,3.65,3,7.39,3s5.68-1.59,7.39-3c1.62-1.33,3.02-2.48,5.94-2.48s4.32,1.15,5.94,2.48c1.71,1.41,3.65,3,7.39,3s5.68-1.59,7.39-3c1.62-1.33,3.02-2.48,5.94-2.48s4.32,1.15,5.94,2.48c1.71,1.41,3.65,3,7.4,3s5.68-1.59,7.39-3c1.49-1.22,2.8-2.28,5.26-2.45v-2.29Z"/></g><g id="dots"><path class="cls-2" d="M9.29,83.13c0,2.57-2.08,4.64-4.65,4.64S0,85.7,0,83.13c0-2.57,2.08-4.65,4.65-4.65s4.64,2.08,4.64,4.65Z"/><path class="cls-2" d="M377.05,83.13c0,2.57-2.08,4.64-4.65,4.64s-4.64-2.08-4.64-4.64c0-2.57,2.08-4.65,4.65-4.65s4.64,2.08,4.64,4.65Z"/></g></g></g></g></svg>