<?xml version="1.0" encoding="UTF-8"?><svg id="Layer_2" xmlns="http://www.w3.org/2000/svg" viewBox="0 0 634.36 581.45"><defs><style>.cls-1,.cls-2,.cls-3,.cls-4,.cls-5,.cls-6,.cls-7,.cls-8,.cls-9,.cls-10,.cls-11,.cls-12,.cls-13,.cls-14,.cls-15,.cls-16,.cls-17,.cls-18,.cls-19{fill:none;}.cls-1,.cls-2,.cls-3,.cls-4,.cls-5,.cls-6,.cls-9,.cls-12,.cls-13,.cls-14,.cls-17{stroke-linejoin:round;}.cls-1,.cls-2,.cls-3,.cls-4,.cls-6,.cls-7,.cls-8,.cls-10,.cls-12,.cls-13,.cls-14{stroke-linecap:round;}.cls-1,.cls-4,.cls-5,.cls-6,.cls-7,.cls-8,.cls-9,.cls-10,.cls-11,.cls-12,.cls-14,.cls-15,.cls-17,.cls-18,.cls-19{stroke:#231f20;}.cls-2,.cls-3,.cls-20,.cls-13,.cls-16{stroke:#000;}.cls-3,.cls-4,.cls-9,.cls-11{stroke-width:.75px;}.cls-21{fill:#fff;}.cls-22,.cls-23{fill:#231f20;}.cls-6{stroke-dasharray:0 0 4.04 4.04;}.cls-6,.cls-10,.cls-20,.cls-13,.cls-14,.cls-17,.cls-19{stroke-width:.5px;}.cls-7,.cls-8,.cls-10,.cls-11,.cls-20,.cls-15,.cls-16,.cls-18,.cls-19{stroke-miterlimit:10;}.cls-23{font-family:Nunito-SemiBold, Nunito;font-size:12px;font-weight:600;}.cls-8,.cls-12,.cls-18{stroke-width:.25px;}.cls-24{letter-spacing:-.01em;}.cls-25{letter-spacing:0em;}</style></defs><g id="Layer_1-2"><g><g><g><path d="M538.24,548.12c-2.69,.1-5.58-.25-8.45-.74-.44-.08-1-.08-1.05-.73-.03-.43,.36-.67,1.15-.68,5.16-.06,10.17-.97,15.04-2.7,4.93-1.76,9.36-4.37,13.35-7.76,5.39-4.58,9.53-10.14,12.89-16.32,4.36-7.99,7.19-16.55,9.37-25.35,1.04-4.2,1.86-8.45,2.67-12.7,.03-.14,.05-.29,.09-.43,.08-.27,.22-.51,.54-.47,.32,.04,.41,.3,.44,.58,.01,.12,.02,.24,.01,.35-.17,1.67-.1,3.35-.21,5.03-.12,1.91-.31,3.81-.46,5.71-.27,3.46-.75,6.9-1.33,10.32-.76,4.44-1.79,8.83-3.2,13.11-2.21,6.73-5.21,13.07-9.74,18.58-5.19,6.32-11.67,10.69-19.62,12.81-3.1,.82-7.24,1.5-11.49,1.39Z"/><path d="M557.31,498.57c.76,.9,1.16,1.76,1.65,2.55,.64,1.02,1.2,2.1,1.87,3.1,.41,.6,.38,1.1,.1,1.72-.91,2.01-1.78,4.04-2.66,6.06-1.21,2.78-2.43,5.56-3.64,8.34-.08,.18-.22,.36-.12,.67,3.92,.14,7.87-.12,11.73-.15,.24,.39,.09,.6-.01,.8-.67,1.31-1.39,2.6-2.01,3.93-.34,.73-.82,.99-1.59,.94-3.08-.21-6.18-.12-9.26-.14-.38,0-.76,0-1.07,0-.49,.48-.65,1.03-.89,1.53-1.23,2.61-2.46,5.22-3.66,7.84-.26,.56-.62,.86-1.21,1.02-1.74,.45-3.46,.94-5.19,1.42-.19,.05-.39,.15-.72-.12,5.51-13.09,11.07-26.21,16.7-39.5Z"/></g><g><path d="M578.11,571.37c.32-.29,.66-.12,.99-.02,2.59,.74,5.23,1.13,7.92,1.09,.94-.01,1.87-.16,2.79-.39,.58-.15,1.1-.41,1.56-.8,1.28-1.07,1.06-2.84-.45-3.52-1.23-.56-2.56-.66-3.88-.71-2.09-.07-4.17-.1-6.23-.51-.5-.1-.97-.26-1.41-.49-1.7-.86-2.08-2.93-.83-4.39,1-1.16,2.38-1.49,3.78-1.69,2.86-.42,5.69-.17,8.47,.59,.37,.1,.73,.24,1.08,.39,.24,.1,.38,.3,.31,.57-.08,.31-.31,.42-.6,.39-.2-.02-.4-.08-.6-.15-2.82-.91-5.7-1.12-8.63-.7-.79,.11-1.54,.37-2.23,.79-.72,.44-1.1,1.09-1.04,1.91,.07,.84,.69,1.26,1.43,1.5,1.01,.33,2.06,.49,3.12,.5,2.03,.02,4.06-.11,6.07,.34,.61,.14,1.21,.28,1.76,.55,1.13,.55,1.93,1.38,1.97,2.7,.04,1.31-.55,2.32-1.67,3.02-.89,.56-1.88,.85-2.91,.99-3.32,.45-6.57,.02-9.77-.85-.95-.26-1.05-.43-1.02-1.11Z"/><path d="M521.07,565.87h9.81c.3-.31,.21-.65,.21-.97,0-1.21,0-2.41,0-3.62,0-.26,.01-.53,.07-.79,.06-.25,.26-.39,.52-.4,.26,0,.45,.12,.56,.35,.13,.28,.12,.57,.12,.87,0,3.56,0,7.13,0,10.69,0,.48,.08,1.07-.62,1.18-.47,.07-.65-.29-.66-1.2,0-1.3,0-2.59,0-3.89,0-.32,.07-.65-.17-1.02h-9.64c-.27,.34-.2,.68-.2,.99,0,1.24,0,2.47,0,3.71,0,.32-.01,.65-.12,.96-.1,.27-.26,.47-.57,.45-.31-.02-.49-.2-.54-.49-.04-.23-.05-.47-.05-.7,0-3.56,0-7.13,0-10.69,0-.18,0-.35,.01-.53,.03-.35,.16-.65,.56-.67,.41-.02,.54,.29,.63,.62,.1,.37,.07,.76,.07,1.14,0,1.29,0,2.58,0,3.99Z"/><path d="M572.86,569.36h-8.12c-.53,.96-1.07,1.94-1.61,2.91-.18,.33-.34,.69-.66,.93-.23,.17-.48,.24-.73,.05-.21-.16-.26-.39-.18-.64,.06-.19,.15-.39,.25-.56,1.93-3.47,3.86-6.94,5.78-10.41,.17-.31,.33-.63,.5-.93,.45-.79,.94-.82,1.43-.03,.45,.72,.83,1.49,1.25,2.23,1.65,2.99,3.3,5.97,4.95,8.96,.14,.26,.3,.5,.35,.8,.04,.25,0,.47-.23,.62-.23,.15-.45,.07-.65-.08-.24-.18-.38-.45-.53-.7-.62-1-1.07-2.1-1.81-3.14Zm-7.57-1.07h7.1c-1.2-2.17-2.34-4.23-3.57-6.46-1.23,2.25-2.35,4.3-3.53,6.46Z"/><path d="M540.88,566.66c.81-.81,1.48-1.78,2.23-2.67,.87-1.03,1.7-2.1,2.56-3.15,.17-.2,.35-.39,.55-.57,.22-.18,.48-.26,.72-.05,.23,.2,.25,.48,.09,.72-.28,.41-.59,.8-.91,1.19-1.42,1.73-2.83,3.46-4.26,5.17-.33,.39-.46,.8-.45,1.29,.01,1.15,0,2.29,0,3.44,0,.23,0,.47-.05,.7-.06,.29-.25,.46-.56,.46-.27,0-.44-.15-.53-.39-.12-.31-.13-.63-.13-.96,0-1.12-.01-2.24,0-3.35,0-.53-.13-.95-.48-1.36-1.49-1.74-2.94-3.52-4.4-5.28-.21-.25-.4-.51-.59-.77-.21-.29-.29-.61,.02-.86,.31-.26,.61-.09,.86,.15,.17,.16,.32,.35,.47,.53,1.41,1.73,2.81,3.47,4.22,5.2,.16,.2,.29,.45,.63,.56Z"/><path d="M550.72,572.14c.38,.18,.74,.12,1.09,.12,2.77,0,5.53,0,8.3,0,.44,0,.91-.03,.97,.57-.15,.39-.46,.4-.75,.4-3.47,0-6.94,0-10.41,0-.11,0-.23-.04-.31-.06-.33-.27-.27-.61-.27-.92,0-3.65,0-7.3,0-10.95,0-.03,0-.06,0-.09,.02-.48,.04-.99,.66-1.08,.42-.07,.62,.27,.62,1.06,0,3.3,0,6.59,0,9.89,0,.35-.07,.71,.12,1.09Z"/><path class="cls-21" d="M565.28,568.29c1.18-2.16,2.3-4.21,3.53-6.46,1.23,2.22,2.37,4.28,3.57,6.46h-7.1Z"/></g></g><g><path class="cls-14" d="M258.71,40.81h-1.33c-52.12,111.92-94.8,242.52-119.5,391.23"/><path class="cls-7" d="M92.19,479.54C146.05,332.64,200.42,184.39,254.86,34.88l3.79,1.07,14.15,425.48"/><path class="cls-1" d="M255.3,35.08v-1.78h7.61l1.82,3.51v1.03s-1.45,.35-1.4,.74c7.73,73.87,16.84,427.92,16.84,427.92"/><polyline class="cls-5" points="280.98 468.55 280.98 466.51 272.66 466.51 272.66 468.41"/><line class="cls-15" x1="410.62" y1="463.48" x2="267" y2="44.37"/><line class="cls-15" x1="317.33" y1="469.19" x2="274.42" y2="273.58"/><polyline class="cls-7" points="277.4 477.72 266.92 180.01 262.15 44.37"/><line class="cls-15" x1="137.88" y1="479.01" x2="266.92" y2="180.01"/><path class="cls-1" d="M390.77,512.74s2.59-.17,4.57-1.98,16.76-34.39,18.71-38.03c-80.77,6.43-225.24,9.6-324.01,6.95l-21.34,25.1s21.45,6.55,30.42,7.99c22.89,3.7,135.53,33.22,291.65-.02Z"/><path class="cls-11" d="M399.89,502.42c-97.02,1.36-330.48,1.51-330.48,1.51l15.85-15.6s3.44-3.1,7.89-5.12c4.82-2.19,8.05-3.26,8.05-3.26"/><path class="cls-1" d="M398.3,505.4c-130.75,.96-325.4,.6-325.4,.6"/><line class="cls-19" x1="34.21" y1="506.01" x2="438.36" y2="506.33"/><rect class="cls-19" x="127.26" y="485.56" width="15.23" height="3.17" rx="1.07" ry="1.07"/><rect class="cls-19" x="245.69" y="484.85" width="15.23" height="3.17" rx="1.07" ry="1.07"/><polyline class="cls-4" points="121.88 478.7 122.02 465.33 105.69 479.95"/><line class="cls-4" x1="102.32" y1="465.11" x2="102.32" y2="479.95"/><line class="cls-4" x1="236.1" y1="464.71" x2="235.87" y2="478.21"/><line class="cls-12" x1="217.08" y1="464.89" x2="236.1" y2="464.71"/><line class="cls-4" x1="171.84" y1="465.57" x2="171.84" y2="478.68"/><polyline class="cls-4" points="122.02 465.33 91.52 464.98 91.12 479.7"/><polyline class="cls-12" points="217.08 464.89 171.84 465.57 123.1 465.34 122.02 465.33"/><line class="cls-4" x1="216.9" y1="478.14" x2="217.08" y2="464.89"/><line class="cls-4" x1="287.9" y1="463.48" x2="287.9" y2="477.08"/><line class="cls-12" x1="236.1" y1="464.71" x2="287.9" y2="463.48"/><polyline class="cls-12" points="287.9 463.48 288.49 463.46 339.7 461.56 391.64 458.87"/><line class="cls-4" x1="339.7" y1="461.56" x2="339.7" y2="475.05"/><polyline class="cls-4" points="391.64 458.87 418.67 457.7 413.76 470.05"/><polyline class="cls-4" points="402.21 473.61 402.21 472.27 393.71 458.78 383.82 472.73"/><path class="cls-9" d="M236.1,467.65h.7s.87-.04,1.27,.79,4.83,9.77,4.83,9.77"/><path class="cls-9" d="M217.08,467.89h-.65s-.82,.22-1.12,.9-4.42,9.68-4.42,9.68"/><line class="cls-14" x1="223.55" y1="480.23" x2="223.49" y2="478.35"/><line class="cls-14" x1="229.17" y1="480.15" x2="229.17" y2="478.21"/><ellipse class="cls-12" cx="226.33" cy="479.05" rx="1.68" ry=".74"/><ellipse class="cls-12" cx="110.54" cy="478.9" rx="1.68" ry=".74"/><polygon class="cls-14" points="205.58 476.57 212.26 471.46 232.05 471.46 232.05 476.29 205.58 476.57"/><polygon class="cls-14" points="234.2 475.98 234.2 471.46 254.39 471.9 262.68 475.51 262.68 475.98 234.2 475.98"/><path class="cls-14" d="M142.7,469.62l-14.75,.87s-2.34,.24-3.61,1.28c-2.45,2-7.6,7.13-7.6,7.13"/><path class="cls-14" d="M153.64,471.46l1.7-3.76h-10.67c-1.26,0-1.38,.72-1.38,.72l-1.95,3.33,64.79-.29s.3-.13,.94-.79,3.07-3.24,4.39-3.07,42.92,.66,42.92,.66c0,0,3.61-.03,4.58-1.39l1.46-1.79"/><line class="cls-14" x1="141.35" y1="470.97" x2="183.29" y2="470.39"/><g><path d="M208.32,251.89c-1.98,.07-4.12-.18-6.24-.55-.33-.06-.74-.06-.77-.54-.02-.32,.27-.5,.85-.5,3.81-.04,7.51-.71,11.1-1.99,3.64-1.3,6.91-3.23,9.85-5.73,3.97-3.38,7.03-7.48,9.51-12.04,3.22-5.9,5.3-12.21,6.91-18.71,.77-3.1,1.37-6.23,1.97-9.37,.02-.11,.04-.21,.07-.32,.06-.2,.16-.38,.4-.35,.24,.03,.3,.22,.32,.43,0,.09,.02,.17,0,.26-.12,1.23-.07,2.47-.15,3.71-.09,1.41-.23,2.81-.34,4.22-.2,2.56-.55,5.09-.98,7.62-.56,3.28-1.32,6.51-2.36,9.68-1.63,4.97-3.85,9.65-7.19,13.71-3.83,4.66-8.61,7.89-14.48,9.45-2.29,.61-5.34,1.1-8.48,1.03Z"/><path d="M222.39,215.33c.56,.67,.85,1.3,1.22,1.88,.47,.76,.88,1.55,1.38,2.28,.3,.44,.28,.81,.08,1.27-.67,1.48-1.31,2.98-1.97,4.47-.9,2.05-1.79,4.1-2.68,6.15-.06,.14-.16,.26-.09,.49,2.89,.11,5.81-.09,8.66-.11,.17,.29,.07,.44,0,.59-.5,.97-1.02,1.92-1.48,2.9-.25,.54-.6,.73-1.17,.69-2.28-.15-4.56-.09-6.84-.1-.28,0-.56,0-.79,0-.36,.35-.48,.76-.66,1.13-.91,1.92-1.82,3.85-2.7,5.78-.19,.41-.45,.64-.89,.75-1.28,.33-2.56,.7-3.83,1.05-.14,.04-.29,.11-.53-.09,4.07-9.66,8.17-19.34,12.32-29.15Z"/></g><path class="cls-12" d="M205.15,462.73l-.02,1.85-5.22,.02v-1.96s.05-.55,1.1-1.1l-.02-1.58s-.71-.47,0-1,3.77-.5,3.78,1.11h-.87v1.45s-2.9,.02-2.9,.02l2.89-.02s1.25,.56,1.25,1.2"/><path class="cls-14" d="M367.52,473.73l-12.57-.21s-4.93-3.56-14.05-3.79c-17.81-.45-70.26-1.45-70.26-1.45,0,0-8.92-3.35-11.8-3.4s-14.01-.78-14.01-.78l-5.89-3.91-2.51,.08s-3.81,1.59-15.08,2.01-16.19,.45-16.19,.45"/><path class="cls-14" d="M261.82,465.41l-2.51,3.01s4.71,1.77,5.65,2.1,.89,.46,1.56,0,2.29-1.72,3.13-2.6"/><path class="cls-14" d="M270.63,468.28s.02,.57-.54,1.04-2.46,2.01-2.46,2.01c0,0,58.34-.08,77.92,.54"/><rect class="cls-14" x="298.78" y="472.64" width="10.25" height="2.53" rx=".5" ry=".5"/><rect class="cls-14" x="278.71" y="472.95" width="10.25" height="2.53" rx=".5" ry=".5"/><path class="cls-14" d="M211.47,467.6l23.28-.2s7.33-.54,9.83-2.89"/><rect class="cls-14" x="141.35" y="473.62" width="9.82" height="3" rx=".92" ry=".92"/><line class="cls-12" x1="200.99" y1="459.97" x2="203.91" y2="460.08"/><line class="cls-14" x1="199.81" y1="462.64" x2="189.33" y2="462.97"/><line class="cls-12" x1="205.15" y1="462.73" x2="199.91" y2="462.64"/><path class="cls-12" d="M206.9,470.85h-6.56c-.72,0-.97-.35-.96-1.08,0-1.19,0-4.62,0-4.62l.53-.55"/><polyline class="cls-12" points="205.13 464.57 205.58 465.09 205.58 470.85"/><path class="cls-12" d="M183.98,464.84l-.53,.55v5.69h4.6s1.69,.13,1.6-1.38v-4.38l-.45-.52"/><line class="cls-12" x1="185.06" y1="460.21" x2="187.99" y2="460.32"/><path class="cls-12" d="M183.98,462.88l5.25-.02c0-.64-1.25-1.1-1.25-1.1l-2.89,.02,2.89-.02v-1.45h.88c0-1.62-3.06-1.64-3.78-1.11s0,1,0,1l.02,1.58c-1.05,.54-1.1,1.1-1.1,1.1v1.96l5.22-.02,.02-1.85"/><path class="cls-14" d="M146.86,467.7s1.52-3.64,3.12-4.84-.67,.52,9.21,.68c12.07,.19,24.69-.66,24.69-.66"/><path class="cls-10" d="M271.51,465.02v.96l3.01,.18v-5.24s-1.07-.11-1.7,1"/><ellipse class="cls-10" cx="272.04" cy="463.33" rx="1.33" ry="1.62"/><line class="cls-10" x1="272.72" y1="464.71" x2="274.52" y2="466.16"/><line class="cls-8" x1="272.04" y1="461.71" x2="272.04" y2="464.95"/><line class="cls-8" x1="272.26" y1="431.91" x2="268.12" y2="431.91"/><path class="cls-22" d="M268.36,432.81s-.06,.02-.1,.02v.25s.06-.02,.1-.02c.48,0,.87,.39,.87,.87s-.39,.87-.87,.87c-.03,0-.06-.02-.1-.02v.25s.06,.02,.1,.02c.62,0,1.12-.5,1.12-1.12s-.5-1.12-1.12-1.12Z"/><path class="cls-19" d="M129.71,432.42l138.41-.85,.04,4.76s.02,.51-.77,.58c-9.09,.81-61.41,3.56-135.57,.31,0,0-3.37,.16-3.43-2.33s0-1.36,0-1.36c0,0-.06-1.09,1.32-1.1Z"/><path class="cls-2" d="M205.7,527.3s2.51-.17,2.54,2.68,.3,21.05,.3,21.05"/><path class="cls-2" d="M285.5,527.12s-1.9,.12-2.71,1.26-10.86,15.74-15.34,20.87c-2.46,2.81-4.14,6.18-13.59,6.23-10.46,.06-48.51,1.05-54.18-1.62,2.07-1.78,38.57-11.98,61.59,.01"/><line class="cls-3" x1="144.94" y1="527.56" x2="173.89" y2="524.72"/><path class="cls-20" d="M144.84,527.56s-1.09-1.48-3.31,.22c2.61,1.48,3.31-.22,3.31-.22Z"/><path class="cls-13" d="M142.8,527.09c-3.15-3.55,.79-6.16,1.62-2.85,0,0,.34,1.03-.15,2.73"/><path class="cls-13" d="M142.94,528.56c-2.1,4.26,2.39,5.73,2.31,2.32,0,0,.05-1.08-.87-2.59"/><polygon class="cls-13" points="146.76 526.76 146.88 527.92 150.53 527.56 150.38 526.44 146.76 526.76"/><line class="cls-13" x1="146.94" y1="526.74" x2="147.37" y2="521.38"/><line class="cls-13" x1="150.38" y1="526.44" x2="151.62" y2="521.99"/><path class="cls-1" d="M114.4,515.69c-3.22-.63-4.13,2.8-5.14,5-2.96,6.91-14.51,32.53-17.54,34.09h-7.98s-.98-24.79-.91-32.36c.03-2.85,1.91-6.36,1.91-6.36l2.43-6.03"/><path class="cls-14" d="M101.53,513.18s.08,2-.6,6.26-1.24,8.94-1.24,8.94c0,0-.11,.79,1.17,.82s4.63,0,4.63,0"/><path class="cls-19" d="M266.79,41.51c.3,.65,.65,1.52,.94,2.3,.17,.44-1.81,1.05-2.03,.63-.28-.51-.69-1.64-.91-2.27-.17-.5,1.74-1.23,2.01-.66Z"/><polyline class="cls-19" points="265.73 41.29 264.07 37.89 265.31 41.41"/><ellipse class="cls-19" cx="271.33" cy="304.5" rx="2.75" ry=".81" transform="translate(-12.08 11.21) rotate(-2.32)"/><ellipse class="cls-11" cx="266.55" cy="168.02" rx="2.75" ry=".81" transform="translate(-6.57 10.91) rotate(-2.32)"/><path class="cls-18" d="M269.47,433.92s1.7,.06,2.64,1.24"/><rect class="cls-19" x="215.46" y="450.34" width="54" height="1.56" rx=".69" ry=".69" transform="translate(199.99 -59.26) rotate(23.5)"/><polyline class="cls-12" points="271.4 464.75 267 462.22 267.25 461.8 271.02 462.29"/><path class="cls-12" d="M218.96,440.07c-.34-.65-1.47-1.39-2.06-1.38"/><path class="cls-12" d="M212.63,438.72s2.01,2.31,5.05,2.3"/><path class="cls-14" d="M217.74,440.27s-2.11-.63-3.31-1.55"/><path class="cls-14" d="M410.16,464.96s-.26-3.23,1.76-.63l.85-.3,1.12,2.38-3.52,1.33-.99-2.28,.78-.49Z"/><polyline class="cls-12" points="411.07 467.46 412.72 468.86 413.02 466.83"/><line class="cls-12" x1="410.16" y1="464.96" x2="411.92" y2="464.33"/><path class="cls-14" d="M265.03,58.88c.33-3.75,.33-15.61-.13-15.94"/><g><path class="cls-14" d="M229.28,431.82c.14-.65,.28-1.3,.41-1.96"/><path class="cls-6" d="M230.52,425.9c31.09-150.22,35.55-293.06,34.83-359.53"/><path class="cls-14" d="M265.33,64.35c0-.67-.02-1.34-.03-2"/></g><path class="cls-14" d="M226.59,443.37s.34-1.09,1.17-4.85"/><path class="cls-14" d="M234,448.27c-2.53-.69-5.58-1.8-8.16-2.54l.2-.72"/><path class="cls-14" d="M272.72,457.62c-9.14-1.89-18.65-4.11-28.61-6.67"/><path class="cls-14" d="M266.25,44.58s138.22,404.26,143.58,418.91c-41.13,5.1-80.16,5.16-129.86-4.42"/><line class="cls-14" x1="129.9" y1="436.9" x2="129.78" y2="438.35"/><rect class="cls-12" x="129.22" y="438.5" width=".93" height="4.8" transform="translate(19.37 -5.24) rotate(2.5)"/><rect class="cls-12" x="128.64" y="463.8" width=".93" height="2.85"/><path class="cls-14" d="M129.57,443.3s-.47,18-.47,20.5"/><polygon class="cls-12" points="129.18 471.52 130.3 468.75 127.85 468.78 129.18 471.52"/><line class="cls-17" x1="129.1" y1="466.65" x2="129.1" y2="468.64"/><path class="cls-12" d="M133.7,470.15s.07-1.02,.88-1.19c.93-.21,7.87-.54,7.87-.54"/><path class="cls-12" d="M281.37,468.28l1.26-2.44s.25-.63,1.01-.6,5.79,0,5.79,0c0,0,.6-.16,1.03,.65s1.65,2.81,1.65,2.81"/><path class="cls-12" d="M286.18,465.22v-2.66s-.36-2.91,3.76-2.84l-.44,4.38s-.81,.06-.72,1.12"/><path class="cls-12" d="M144.47,467.74v-2.66s-.36-2.91,3.76-2.84l-.44,4.38s-.81,.06-.72,1.12"/><line class="cls-12" x1="154.85" y1="463.32" x2="154.72" y2="462.22"/><path class="cls-12" d="M150.05,462.23h4.67c0-.59-1.11-.99-1.11-.99l-2.57,.02,2.57-.02v-1.29h.78c0-1.44-2.72-1.46-3.36-.99s0,.89,0,.89l.02,1.4c-.94,.48-.98,.98-.98,.98v.58"/><path class="cls-12" d="M154.77,462.68s1.82-.02,5.41,.87"/><path class="cls-12" d="M215.19,462.18h4.87c0-.61-1.16-1.04-1.16-1.04l-2.69,.02,2.69-.02v-1.35h.81c0-1.5-2.84-1.53-3.51-1.03s0,.93,0,.93l.02,1.47c-.98,.51-1.02,1.02-1.02,1.02v.31"/><line class="cls-12" x1="216.2" y1="459.7" x2="218.91" y2="459.8"/><line class="cls-12" x1="219.41" y1="461.39" x2="230.13" y2="461.59"/><ellipse class="cls-12" cx="395.85" cy="472.73" rx="1.68" ry=".74"/><path class="cls-14" d="M393.02,474.24v-1.96c-68.19,4.05-138.62,6.87-163.56,5.93q-1.12-.04-1.97-.38c-.8-.32-1.52-.29-2.46,.11-1.04,.44-1.9,.41-1.9,.41,0,0-108.95,1.24-110.02,.33-.47-.4-.51-.44-.88-.69-.87-.59-2.61-.43-3.23-.08-.58,.33-.8,.77-.8,.77h-17.07l-1.08,.99"/><path class="cls-14" d="M393.02,472.28c4.26-2.26,5.75,.57,6.26,1.43"/><path class="cls-12" d="M394.08,478.3c-.49,.47-.39,1,.07,1.34,.79-.24,3.47-1,3.47-1l-3.54-.34Z"/><circle class="cls-22" cx="392.38" cy="479" r=".56"/><path class="cls-12" d="M103.26,484.3h1.22c119.11,1.47,253.98-3.27,286.4-4.87l-.04-.61c-32.43,1.6-167.29,6.34-286.4,4.88l-1.18,.6Z"/><path class="cls-14" d="M129.08,472.64s25.85-.57,37.54-1"/><path class="cls-12" d="M189.54,470.39c3.63-.82,6.5-.78,9.84,0"/><polyline class="cls-12" points="180.47 463.08 180.47 461.72 180.85 461.72 180.85 458.53 176.57 458.53 176.57 461.64 176.95 461.72 176.97 463.25"/><path class="cls-12" d="M177.02,458.53c.48-2.21,2.9-2.21,3.35,0"/><path class="cls-12" d="M174.93,463.33v-10.67c0-.24,.19-.43,.43-.43h0c.24,0,.43,.19,.43,.43v10.64"/><line class="cls-12" x1="175.78" y1="461.99" x2="176.95" y2="461.99"/><line class="cls-12" x1="175.78" y1="462.74" x2="176.95" y2="462.74"/><circle class="cls-12" cx="421.43" cy="471.72" r=".56"/><circle class="cls-12" cx="421.43" cy="471.72" r="1.57"/><path class="cls-12" d="M420.87,473.18s.26,.88-.65,1.39-6.16,4.01-6.16,4.01c0,0,19.48-.32,9.92-5.4,0,0-.02-1.15-.01-1.74-.17-1.29,.01-2.81-6.35-1.73l-15.4,2.56"/><polyline class="cls-14" points="397.95 472.09 412.83 471.29 412.83 472.88"/><path class="cls-12" d="M412.83,471.29s7.86-1.58,8.6-1.14"/><path class="cls-12" d="M419.88,471.91s-3.73-.41-6.29,.71"/><line class="cls-4" x1="388.22" y1="466.52" x2="415.78" y2="464.96"/><line class="cls-4" x1="412.72" y1="468.86" x2="413.21" y2="470.15"/></g><rect class="cls-16" x=".5" y=".5" width="633.36" height="580.45"/><line class="cls-16" x1="480.65" y1=".5" x2="480.65" y2="580.95"/><line class="cls-16" x1="480.65" y1="469.34" x2="633.86" y2="469.34"/><line class="cls-16" x1="480.65" y1="18.17" x2="633.86" y2="18.17"/><text class="cls-23" transform="translate(525.34 13.84)"><tspan x="0" y="0">HY</tspan><tspan class="cls-24" x="16.48" y="0">L</tspan><tspan class="cls-25" x="22.91" y="0">A</tspan><tspan x="31.63" y="0">S 46</tspan></text></g></g></svg>